<svg width="70" height="30" viewBox="0 0 70 30" fill="none" xmlns="http://www.w3.org/2000/svg">
<path d="M10.8638 29.64C8.90108 29.64 7.06642 29.32 5.35975 28.68C3.65308 27.9973 2.30908 27.1013 1.32775 25.992C0.858417 25.48 0.62375 24.8827 0.62375 24.2C0.62375 23.4747 0.901083 22.8347 1.45575 22.28C2.01042 21.7253 2.67175 21.448 3.43975 21.448C4.16508 21.448 4.78375 21.704 5.29575 22.216C6.02108 22.8987 6.93842 23.432 8.04775 23.816C9.15708 24.2 10.2451 24.392 11.3118 24.392C12.4211 24.392 13.3811 24.1573 14.1918 23.688C15.0024 23.176 15.4078 22.3867 15.4078 21.32C15.4078 20.424 15.0238 19.7413 14.2558 19.272C13.5304 18.76 12.2931 18.3547 10.5438 18.056C7.42908 17.544 5.08242 16.6907 3.50375 15.496C1.92508 14.2587 1.13575 12.5307 1.13575 10.312C1.13575 7.92267 2.05308 6.024 3.88775 4.616C5.72242 3.16533 8.13308 2.44 11.1198 2.44C14.1918 2.44 16.6451 3.22933 18.4798 4.808C19.2051 5.40533 19.5678 6.10933 19.5678 6.92C19.5678 7.60266 19.2904 8.2 18.7358 8.712C18.2238 9.18133 17.6051 9.416 16.8798 9.416C16.3251 9.416 15.8131 9.26667 15.3438 8.968C13.7224 7.944 12.0158 7.432 10.2238 7.432C9.15708 7.432 8.26108 7.64533 7.53575 8.072C6.81042 8.49867 6.44775 9.13867 6.44775 9.992C6.44775 10.888 7.00242 11.592 8.11175 12.104C9.26375 12.616 10.9278 13.0853 13.1038 13.512C14.2984 13.7253 15.4718 14.1093 16.6238 14.664C17.8184 15.176 18.7998 15.9653 19.5678 17.032C20.3784 18.0987 20.7838 19.5493 20.7838 21.384C20.7838 23.816 19.8451 25.8 17.9678 27.336C16.1331 28.872 13.7651 29.64 10.8638 29.64ZM27.9103 29.64C27.0996 29.64 26.4169 29.4053 25.8623 28.936C25.3076 28.4667 25.0303 27.8693 25.0303 27.144V12.616C25.0303 11.9333 25.2863 11.3573 25.7983 10.888C26.3529 10.376 27.0569 10.12 27.9103 10.12C28.7636 10.12 29.4249 10.376 29.8943 10.888C30.4063 11.3573 30.6623 11.9547 30.6623 12.68V27.08C30.6623 27.8053 30.3849 28.424 29.8303 28.936C29.3183 29.4053 28.6783 29.64 27.9103 29.64ZM27.9103 6.92C27.0143 6.92 26.2463 6.64267 25.6063 6.088C24.9663 5.49067 24.6463 4.744 24.6463 3.848C24.6463 3.03733 24.9663 2.33333 25.6063 1.736C26.2463 1.13866 27.0143 0.839998 27.9103 0.839998C28.7636 0.839998 29.4889 1.13866 30.0863 1.736C30.7263 2.33333 31.0463 3.03733 31.0463 3.848C31.0463 4.744 30.7263 5.49067 30.0863 6.088C29.4889 6.64267 28.7636 6.92 27.9103 6.92ZM40.5133 29C39.1906 29 38.1239 28.6373 37.3133 27.912C36.5453 27.144 36.1613 26.1413 36.1613 24.904V7.048C36.1613 5.81067 36.5239 4.85067 37.2493 4.168C37.9746 3.44267 38.9346 3.08 40.1293 3.08H45.9533C48.7693 3.08 51.1586 3.656 53.1213 4.808C55.0839 5.91733 56.5773 7.45333 57.6013 9.416C58.6679 11.336 59.2013 13.5333 59.2013 16.008C59.2013 18.568 58.6679 20.8293 57.6013 22.792C56.5346 24.7547 55.0839 26.2907 53.2493 27.4C51.4146 28.4667 49.3666 29 47.1053 29H40.5133ZM43.5213 23.88H46.0173C48.4493 23.88 50.3053 23.1973 51.5853 21.832C52.8653 20.424 53.4839 18.4827 53.4413 16.008C53.3986 13.448 52.7373 11.5067 51.4573 10.184C50.1773 8.86133 48.3426 8.2 45.9533 8.2H43.5213C42.4546 8.2 41.9213 8.73333 41.9213 9.8V22.28C41.9213 23.3467 42.4546 23.88 43.5213 23.88ZM66.2853 29.64C65.4746 29.64 64.7919 29.4053 64.2373 28.936C63.6826 28.4667 63.4053 27.8693 63.4053 27.144V12.616C63.4053 11.9333 63.6613 11.3573 64.1733 10.888C64.7279 10.376 65.4319 10.12 66.2853 10.12C67.1386 10.12 67.7999 10.376 68.2693 10.888C68.7813 11.3573 69.0373 11.9547 69.0373 12.68V27.08C69.0373 27.8053 68.7599 28.424 68.2053 28.936C67.6933 29.4053 67.0533 29.64 66.2853 29.64ZM66.2853 6.92C65.3893 6.92 64.6213 6.64267 63.9813 6.088C63.3413 5.49067 63.0213 4.744 63.0213 3.848C63.0213 3.03733 63.3413 2.33333 63.9813 1.736C64.6213 1.13866 65.3893 0.839998 66.2853 0.839998C67.1386 0.839998 67.8639 1.13866 68.4613 1.736C69.1013 2.33333 69.4213 3.03733 69.4213 3.848C69.4213 4.744 69.1013 5.49067 68.4613 6.088C67.8639 6.64267 67.1386 6.92 66.2853 6.92Z" fill="white"/>
</svg>
